G04 #@! TF.GenerationSoftware,KiCad,Pcbnew,(5.0.2)-1*
G04 #@! TF.CreationDate,2019-06-07T16:00:48+01:00*
G04 #@! TF.ProjectId,add_on_6-1,6164645f-6f6e-45f3-962d-312e6b696361,rev?*
G04 #@! TF.SameCoordinates,Original*
G04 #@! TF.FileFunction,Copper,L2,Bot*
G04 #@! TF.FilePolarity,Positive*
%FSLAX46Y46*%
G04 Gerber Fmt 4.6, Leading zero omitted, Abs format (unit mm)*
G04 Created by KiCad (PCBNEW (5.0.2)-1) date 07/06/2019 16:00:48*
%MOMM*%
%LPD*%
G01*
G04 APERTURE LIST*
G04 #@! TA.AperFunction,ComponentPad*
%ADD10R,1.700000X1.700000*%
G04 #@! TD*
G04 #@! TA.AperFunction,ComponentPad*
%ADD11O,1.700000X1.700000*%
G04 #@! TD*
G04 #@! TA.AperFunction,ComponentPad*
%ADD12C,2.000000*%
G04 #@! TD*
G04 #@! TA.AperFunction,ComponentPad*
%ADD13R,2.000000X2.000000*%
G04 #@! TD*
G04 #@! TA.AperFunction,ComponentPad*
%ADD14C,2.400000*%
G04 #@! TD*
G04 #@! TA.AperFunction,ComponentPad*
%ADD15O,1.600000X1.600000*%
G04 #@! TD*
G04 #@! TA.AperFunction,ComponentPad*
%ADD16R,1.600000X1.600000*%
G04 #@! TD*
G04 #@! TA.AperFunction,ViaPad*
%ADD17C,1.400000*%
G04 #@! TD*
G04 #@! TA.AperFunction,ViaPad*
%ADD18C,1.600000*%
G04 #@! TD*
G04 #@! TA.AperFunction,Conductor*
%ADD19C,0.700000*%
G04 #@! TD*
G04 #@! TA.AperFunction,Conductor*
%ADD20C,0.900000*%
G04 #@! TD*
G04 #@! TA.AperFunction,Conductor*
%ADD21C,0.254000*%
G04 #@! TD*
G04 APERTURE END LIST*
D10*
G04 #@! TO.P,P1,1*
G04 #@! TO.N,3V3_RPi*
X208370000Y-98770000D03*
D11*
G04 #@! TO.P,P1,2*
G04 #@! TO.N,Net-(P1-Pad2)*
X208370000Y-96230000D03*
G04 #@! TO.P,P1,3*
G04 #@! TO.N,Net-(P1-Pad3)*
X210910000Y-98770000D03*
G04 #@! TO.P,P1,4*
G04 #@! TO.N,Net-(P1-Pad4)*
X210910000Y-96230000D03*
G04 #@! TO.P,P1,5*
G04 #@! TO.N,Net-(P1-Pad5)*
X213450000Y-98770000D03*
G04 #@! TO.P,P1,6*
G04 #@! TO.N,GND_RPi*
X213450000Y-96230000D03*
G04 #@! TO.P,P1,7*
G04 #@! TO.N,Net-(P1-Pad7)*
X215990000Y-98770000D03*
G04 #@! TO.P,P1,8*
G04 #@! TO.N,Net-(P1-Pad8)*
X215990000Y-96230000D03*
G04 #@! TO.P,P1,9*
G04 #@! TO.N,GND_RPi*
X218530000Y-98770000D03*
G04 #@! TO.P,P1,10*
G04 #@! TO.N,Out_RPi_1*
X218530000Y-96230000D03*
G04 #@! TO.P,P1,11*
G04 #@! TO.N,Net-(P1-Pad11)*
X221070000Y-98770000D03*
G04 #@! TO.P,P1,12*
G04 #@! TO.N,Net-(P1-Pad12)*
X221070000Y-96230000D03*
G04 #@! TO.P,P1,13*
G04 #@! TO.N,In_RPi_1*
X223610000Y-98770000D03*
G04 #@! TO.P,P1,14*
G04 #@! TO.N,GND_RPi*
X223610000Y-96230000D03*
G04 #@! TO.P,P1,15*
G04 #@! TO.N,Net-(P1-Pad15)*
X226150000Y-98770000D03*
G04 #@! TO.P,P1,16*
G04 #@! TO.N,Net-(P1-Pad16)*
X226150000Y-96230000D03*
G04 #@! TO.P,P1,17*
G04 #@! TO.N,3V3_RPi*
X228690000Y-98770000D03*
G04 #@! TO.P,P1,18*
G04 #@! TO.N,Out_RPi_2*
X228690000Y-96230000D03*
G04 #@! TO.P,P1,19*
G04 #@! TO.N,Net-(P1-Pad19)*
X231230000Y-98770000D03*
G04 #@! TO.P,P1,20*
G04 #@! TO.N,GND_RPi*
X231230000Y-96230000D03*
G04 #@! TO.P,P1,21*
G04 #@! TO.N,In_RPi_2*
X233770000Y-98770000D03*
G04 #@! TO.P,P1,22*
G04 #@! TO.N,Net-(P1-Pad22)*
X233770000Y-96230000D03*
G04 #@! TO.P,P1,23*
G04 #@! TO.N,Net-(P1-Pad23)*
X236310000Y-98770000D03*
G04 #@! TO.P,P1,24*
G04 #@! TO.N,Net-(P1-Pad24)*
X236310000Y-96230000D03*
G04 #@! TO.P,P1,25*
G04 #@! TO.N,Net-(P1-Pad25)*
X238850000Y-98770000D03*
G04 #@! TO.P,P1,26*
G04 #@! TO.N,Out_RPi_3*
X238850000Y-96230000D03*
G04 #@! TO.P,P1,27*
G04 #@! TO.N,Net-(P1-Pad27)*
X241390000Y-98770000D03*
G04 #@! TO.P,P1,28*
G04 #@! TO.N,Net-(P1-Pad28)*
X241390000Y-96230000D03*
G04 #@! TO.P,P1,29*
G04 #@! TO.N,Net-(P1-Pad29)*
X243930000Y-98770000D03*
G04 #@! TO.P,P1,30*
G04 #@! TO.N,GND_RPi*
X243930000Y-96230000D03*
G04 #@! TO.P,P1,31*
G04 #@! TO.N,In_RPi_3*
X246470000Y-98770000D03*
G04 #@! TO.P,P1,32*
G04 #@! TO.N,Net-(P1-Pad32)*
X246470000Y-96230000D03*
G04 #@! TO.P,P1,33*
G04 #@! TO.N,Net-(P1-Pad33)*
X249010000Y-98770000D03*
G04 #@! TO.P,P1,34*
G04 #@! TO.N,GND_RPi*
X249010000Y-96230000D03*
G04 #@! TO.P,P1,35*
G04 #@! TO.N,In_RPi_4*
X251550000Y-98770000D03*
G04 #@! TO.P,P1,36*
G04 #@! TO.N,Net-(P1-Pad36)*
X251550000Y-96230000D03*
G04 #@! TO.P,P1,37*
G04 #@! TO.N,Net-(P1-Pad37)*
X254090000Y-98770000D03*
G04 #@! TO.P,P1,38*
G04 #@! TO.N,Out_RPi_4*
X254090000Y-96230000D03*
G04 #@! TO.P,P1,39*
G04 #@! TO.N,GND_RPi*
X256630000Y-98770000D03*
G04 #@! TO.P,P1,40*
G04 #@! TO.N,Net-(P1-Pad40)*
X256630000Y-96230000D03*
G04 #@! TD*
D12*
G04 #@! TO.P,K1,A2*
G04 #@! TO.N,Net-(D1-Pad2)*
X215179040Y-104365400D03*
D13*
G04 #@! TO.P,K1,A1*
G04 #@! TO.N,3V3_RPi*
X215179040Y-108115400D03*
D14*
G04 #@! TO.P,K1,12*
G04 #@! TO.N,NC_1*
X215179040Y-119365400D03*
G04 #@! TO.P,K1,11*
G04 #@! TO.N,OUT1*
X215179040Y-124365400D03*
G04 #@! TO.P,K1,14*
G04 #@! TO.N,NO_1*
X215179040Y-129365400D03*
G04 #@! TD*
G04 #@! TO.P,K2,14*
G04 #@! TO.N,NO_2*
X209575800Y-129350160D03*
G04 #@! TO.P,K2,11*
G04 #@! TO.N,OUT2*
X209575800Y-124350160D03*
G04 #@! TO.P,K2,12*
G04 #@! TO.N,NC_2*
X209575800Y-119350160D03*
D13*
G04 #@! TO.P,K2,A1*
G04 #@! TO.N,3V3_RPi*
X209575800Y-108100160D03*
D12*
G04 #@! TO.P,K2,A2*
G04 #@! TO.N,Net-(D2-Pad2)*
X209575800Y-104350160D03*
G04 #@! TD*
D14*
G04 #@! TO.P,K3,14*
G04 #@! TO.N,NO_3*
X241656000Y-129365400D03*
G04 #@! TO.P,K3,11*
G04 #@! TO.N,OUT3*
X241656000Y-124365400D03*
G04 #@! TO.P,K3,12*
G04 #@! TO.N,NC_3*
X241656000Y-119365400D03*
D13*
G04 #@! TO.P,K3,A1*
G04 #@! TO.N,3V3_RPi*
X241656000Y-108115400D03*
D12*
G04 #@! TO.P,K3,A2*
G04 #@! TO.N,Net-(D3-Pad2)*
X241656000Y-104365400D03*
G04 #@! TD*
G04 #@! TO.P,K4,A2*
G04 #@! TO.N,Net-(D4-Pad2)*
X247482760Y-104365400D03*
D13*
G04 #@! TO.P,K4,A1*
G04 #@! TO.N,3V3_RPi*
X247482760Y-108115400D03*
D14*
G04 #@! TO.P,K4,12*
G04 #@! TO.N,NC_4*
X247482760Y-119365400D03*
G04 #@! TO.P,K4,11*
G04 #@! TO.N,OUT4*
X247482760Y-124365400D03*
G04 #@! TO.P,K4,14*
G04 #@! TO.N,NO_4*
X247482760Y-129365400D03*
G04 #@! TD*
D15*
G04 #@! TO.P,U1,6*
G04 #@! TO.N,Net-(U1-Pad6)*
X209969500Y-135229900D03*
G04 #@! TO.P,U1,3*
G04 #@! TO.N,Net-(U1-Pad3)*
X215049500Y-142849900D03*
G04 #@! TO.P,U1,5*
G04 #@! TO.N,In_RPi_1*
X212509500Y-135229900D03*
G04 #@! TO.P,U1,2*
G04 #@! TO.N,COM_EXTERNAL*
X212509500Y-142849900D03*
G04 #@! TO.P,U1,4*
G04 #@! TO.N,GND_RPi*
X215049500Y-135229900D03*
D16*
G04 #@! TO.P,U1,1*
G04 #@! TO.N,Net-(R1_1-Pad1)*
X209969500Y-142849900D03*
G04 #@! TD*
G04 #@! TO.P,U2,1*
G04 #@! TO.N,Net-(R1_2-Pad1)*
X220307300Y-142888000D03*
D15*
G04 #@! TO.P,U2,4*
G04 #@! TO.N,GND_RPi*
X225387300Y-135268000D03*
G04 #@! TO.P,U2,2*
G04 #@! TO.N,COM_EXTERNAL*
X222847300Y-142888000D03*
G04 #@! TO.P,U2,5*
G04 #@! TO.N,In_RPi_2*
X222847300Y-135268000D03*
G04 #@! TO.P,U2,3*
G04 #@! TO.N,Net-(U2-Pad3)*
X225387300Y-142888000D03*
G04 #@! TO.P,U2,6*
G04 #@! TO.N,Net-(U2-Pad6)*
X220307300Y-135268000D03*
G04 #@! TD*
G04 #@! TO.P,U3,6*
G04 #@! TO.N,Net-(U3-Pad6)*
X231000700Y-135331500D03*
G04 #@! TO.P,U3,3*
G04 #@! TO.N,Net-(U3-Pad3)*
X236080700Y-142951500D03*
G04 #@! TO.P,U3,5*
G04 #@! TO.N,In_RPi_3*
X233540700Y-135331500D03*
G04 #@! TO.P,U3,2*
G04 #@! TO.N,COM_EXTERNAL*
X233540700Y-142951500D03*
G04 #@! TO.P,U3,4*
G04 #@! TO.N,GND_RPi*
X236080700Y-135331500D03*
D16*
G04 #@! TO.P,U3,1*
G04 #@! TO.N,Net-(R1_3-Pad1)*
X231000700Y-142951500D03*
G04 #@! TD*
G04 #@! TO.P,U4,1*
G04 #@! TO.N,Net-(R1_4-Pad1)*
X241490900Y-143065800D03*
D15*
G04 #@! TO.P,U4,4*
G04 #@! TO.N,GND_RPi*
X246570900Y-135445800D03*
G04 #@! TO.P,U4,2*
G04 #@! TO.N,COM_EXTERNAL*
X244030900Y-143065800D03*
G04 #@! TO.P,U4,5*
G04 #@! TO.N,In_RPi_4*
X244030900Y-135445800D03*
G04 #@! TO.P,U4,3*
G04 #@! TO.N,Net-(U4-Pad3)*
X246570900Y-143065800D03*
G04 #@! TO.P,U4,6*
G04 #@! TO.N,Net-(U4-Pad6)*
X241490900Y-135445800D03*
G04 #@! TD*
D17*
G04 #@! TO.N,Out_RPi_1*
X224320100Y-113586260D03*
X226050000Y-101740000D03*
G04 #@! TO.N,Out_RPi_2*
X226077780Y-131290060D03*
X230550000Y-101590000D03*
G04 #@! TO.N,Out_RPi_3*
X234660000Y-100978622D03*
X232340001Y-103640001D03*
G04 #@! TO.N,Out_RPi_4*
X231526080Y-131559300D03*
X229679500Y-116738400D03*
X242737639Y-133723380D03*
X255350000Y-102530000D03*
G04 #@! TO.N,3V3_RPi*
X218394680Y-113815160D03*
X233586020Y-112003840D03*
X222925640Y-128521460D03*
X231394000Y-127419100D03*
X208368900Y-101384100D03*
X228720000Y-101620000D03*
G04 #@! TO.N,Net-(D1-Pad2)*
X218460000Y-103300000D03*
G04 #@! TO.N,Net-(D2-Pad2)*
X214260000Y-102180000D03*
G04 #@! TO.N,Net-(D3-Pad2)*
X241655600Y-102146100D03*
G04 #@! TO.N,Net-(D4-Pad2)*
X239146080Y-132466078D03*
D18*
G04 #@! TO.N,NC_1*
X204790440Y-107830920D03*
G04 #@! TO.N,OUT1*
X204775200Y-111767920D03*
G04 #@! TO.N,NO_1*
X204795520Y-115776040D03*
G04 #@! TO.N,NO_2*
X204757420Y-129403140D03*
G04 #@! TO.N,OUT2*
X204770120Y-125463600D03*
G04 #@! TO.N,NC_2*
X204785360Y-121478340D03*
G04 #@! TO.N,NO_3*
X249966880Y-115958920D03*
G04 #@! TO.N,OUT3*
X249992280Y-111945720D03*
G04 #@! TO.N,NC_3*
X249959260Y-107945220D03*
G04 #@! TO.N,NC_4*
X249974500Y-121455480D03*
G04 #@! TO.N,OUT4*
X249977040Y-125455980D03*
G04 #@! TO.N,NO_4*
X249982120Y-129456480D03*
D17*
G04 #@! TO.N,In_RPi_1*
X212160000Y-101030000D03*
X222540000Y-101010000D03*
G04 #@! TO.N,In_RPi_2*
X232180000Y-100960000D03*
G04 #@! TO.N,In_RPi_3*
X233547920Y-129217420D03*
X227280000Y-102910000D03*
G04 #@! TO.N,In_RPi_4*
X236280960Y-129245360D03*
D18*
G04 #@! TO.N,COM_EXTERNAL*
X252021740Y-145194320D03*
G04 #@! TD*
D19*
G04 #@! TO.N,Out_RPi_1*
X224320100Y-103469900D02*
X225350001Y-102439999D01*
X225350001Y-102439999D02*
X226050000Y-101740000D01*
X224320100Y-113586260D02*
X224320100Y-103469900D01*
G04 #@! TO.N,Out_RPi_2*
X230550000Y-102579949D02*
X230550000Y-101590000D01*
X231860000Y-106120000D02*
X230550000Y-104810000D01*
X239860000Y-100770000D02*
X234510000Y-106120000D01*
X230550000Y-104810000D02*
X230550000Y-102579949D01*
X256118222Y-100770000D02*
X239860000Y-100770000D01*
X226077780Y-132280009D02*
X232723071Y-138925300D01*
X226077780Y-131290060D02*
X226077780Y-132280009D01*
X232723071Y-138925300D02*
X247521160Y-138925300D01*
X247521160Y-138925300D02*
X257066180Y-129380280D01*
X234510000Y-106120000D02*
X231860000Y-106120000D01*
X257066180Y-129380280D02*
X257066180Y-101717958D01*
X257066180Y-101717958D02*
X256118222Y-100770000D01*
G04 #@! TO.N,Out_RPi_3*
X234660000Y-101250000D02*
X234660000Y-100978622D01*
X232340001Y-103640001D02*
X232340001Y-103569999D01*
X232340001Y-103569999D02*
X234660000Y-101250000D01*
G04 #@! TO.N,Out_RPi_4*
X231526080Y-131559300D02*
X229679500Y-129712720D01*
X229679500Y-129712720D02*
X229679500Y-117728349D01*
X229679500Y-117728349D02*
X229679500Y-116738400D01*
X255350000Y-103519949D02*
X255350000Y-102530000D01*
X250975560Y-133723380D02*
X255350000Y-129348940D01*
X242737639Y-133723380D02*
X250975560Y-133723380D01*
X255350000Y-129348940D02*
X255350000Y-103519949D01*
G04 #@! TO.N,3V3_RPi*
X215163800Y-108100160D02*
X215179040Y-108115400D01*
X209575800Y-108100160D02*
X215163800Y-108100160D01*
X241656000Y-108115400D02*
X247482760Y-108115400D01*
X215179040Y-108115400D02*
X215179040Y-110599520D01*
X215179040Y-110599520D02*
X217694681Y-113115161D01*
X217694681Y-113115161D02*
X218394680Y-113815160D01*
X233613960Y-112031780D02*
X233586020Y-112003840D01*
X236059980Y-112031780D02*
X233613960Y-112031780D01*
X241656000Y-108115400D02*
X239976360Y-108115400D01*
X239976360Y-108115400D02*
X236059980Y-112031780D01*
X222925640Y-127531511D02*
X222925640Y-128521460D01*
X222925640Y-121224040D02*
X222925640Y-127531511D01*
X218394680Y-113815160D02*
X218394680Y-116693080D01*
X218394680Y-116693080D02*
X222925640Y-121224040D01*
X233586020Y-112003840D02*
X233586020Y-125227080D01*
X232093999Y-126719101D02*
X231394000Y-127419100D01*
X233586020Y-125227080D02*
X232093999Y-126719101D01*
X207208120Y-102544880D02*
X208368900Y-101384100D01*
X209560560Y-108100160D02*
X207208120Y-105747720D01*
X207208120Y-105747720D02*
X207208120Y-102544880D01*
X233586020Y-112003840D02*
X228720000Y-107137820D01*
X228720000Y-107137820D02*
X228720000Y-102609949D01*
X228720000Y-102609949D02*
X228720000Y-101620000D01*
G04 #@! TO.N,Net-(D1-Pad2)*
X215179040Y-104365400D02*
X216244440Y-103300000D01*
X216244440Y-103300000D02*
X217470051Y-103300000D01*
X217470051Y-103300000D02*
X218460000Y-103300000D01*
G04 #@! TO.N,Net-(D2-Pad2)*
X212089840Y-104350160D02*
X214260000Y-102180000D01*
X209575800Y-104350160D02*
X212089840Y-104350160D01*
G04 #@! TO.N,Net-(D3-Pad2)*
X241655600Y-104365000D02*
X241656000Y-104365400D01*
X241655600Y-102146100D02*
X241655600Y-104365000D01*
G04 #@! TO.N,Net-(D4-Pad2)*
X247509740Y-104338420D02*
X247482760Y-104365400D01*
X253428900Y-129433620D02*
X250396442Y-132466078D01*
X248896973Y-104365400D02*
X253428900Y-108897327D01*
X247482760Y-104365400D02*
X248896973Y-104365400D01*
X240136029Y-132466078D02*
X239146080Y-132466078D01*
X250396442Y-132466078D02*
X240136029Y-132466078D01*
X253428900Y-108897327D02*
X253428900Y-129433620D01*
D20*
G04 #@! TO.N,NC_1*
X215179040Y-116736160D02*
X215179040Y-119365400D01*
X204790440Y-107830920D02*
X206273800Y-107830920D01*
X206273800Y-107830920D02*
X215179040Y-116736160D01*
G04 #@! TO.N,OUT1*
X213979041Y-123165401D02*
X215179040Y-124365400D01*
X213075920Y-122262280D02*
X213979041Y-123165401D01*
X213075920Y-117101920D02*
X213075920Y-122262280D01*
X204775200Y-111767920D02*
X207741920Y-111767920D01*
X207741920Y-111767920D02*
X213075920Y-117101920D01*
G04 #@! TO.N,NO_1*
X204795520Y-115776040D02*
X204820920Y-115750640D01*
X205926890Y-115776040D02*
X204795520Y-115776040D01*
X209464040Y-115776040D02*
X205926890Y-115776040D01*
X211767820Y-118079820D02*
X209464040Y-115776040D01*
X211767820Y-124556820D02*
X211767820Y-118079820D01*
X215179040Y-129365400D02*
X215179040Y-127968040D01*
X215179040Y-127968040D02*
X211767820Y-124556820D01*
G04 #@! TO.N,NO_2*
X209522820Y-129403140D02*
X209575800Y-129350160D01*
X204757420Y-129403140D02*
X209522820Y-129403140D01*
G04 #@! TO.N,OUT2*
X208462360Y-125463600D02*
X209575800Y-124350160D01*
X204770120Y-125463600D02*
X208462360Y-125463600D01*
G04 #@! TO.N,NC_2*
X207447620Y-121478340D02*
X209575800Y-119350160D01*
X204785360Y-121478340D02*
X207447620Y-121478340D01*
G04 #@! TO.N,NO_3*
X242855999Y-128165401D02*
X241656000Y-129365400D01*
X245232320Y-125789080D02*
X242855999Y-128165401D01*
X245232320Y-118359220D02*
X245232320Y-125789080D01*
X249966880Y-115958920D02*
X247632620Y-115958920D01*
X247632620Y-115958920D02*
X245232320Y-118359220D01*
G04 #@! TO.N,OUT3*
X242855999Y-123165401D02*
X241656000Y-124365400D01*
X243804840Y-122216560D02*
X242855999Y-123165401D01*
X243804840Y-117490540D02*
X243804840Y-122216560D01*
X249992280Y-111945720D02*
X249349660Y-111945720D01*
X249349660Y-111945720D02*
X243804840Y-117490540D01*
G04 #@! TO.N,NC_3*
X241656000Y-117312740D02*
X241656000Y-119365400D01*
X249959260Y-107945220D02*
X249959260Y-109009480D01*
X249959260Y-109009480D02*
X241656000Y-117312740D01*
G04 #@! TO.N,NC_4*
X249572840Y-121455480D02*
X247482760Y-119365400D01*
X249974500Y-121455480D02*
X249572840Y-121455480D01*
G04 #@! TO.N,OUT4*
X248573340Y-125455980D02*
X247482760Y-124365400D01*
X249977040Y-125455980D02*
X248573340Y-125455980D01*
G04 #@! TO.N,NO_4*
X247573840Y-129456480D02*
X247482760Y-129365400D01*
X249982120Y-129456480D02*
X247573840Y-129456480D01*
D19*
G04 #@! TO.N,In_RPi_1*
X212160000Y-101030000D02*
X222520000Y-101030000D01*
X222520000Y-101030000D02*
X222540000Y-101010000D01*
G04 #@! TO.N,In_RPi_2*
X231610000Y-100390000D02*
X232180000Y-100960000D01*
X222847300Y-135268000D02*
X224456641Y-133658659D01*
X223090000Y-116727500D02*
X223090000Y-102580000D01*
X224456641Y-133658659D02*
X224456641Y-118094141D01*
X223090000Y-102580000D02*
X225280000Y-100390000D01*
X224456641Y-118094141D02*
X223090000Y-116727500D01*
X225280000Y-100390000D02*
X231610000Y-100390000D01*
G04 #@! TO.N,In_RPi_3*
X233540700Y-129224640D02*
X233547920Y-129217420D01*
X233540700Y-135331500D02*
X233540700Y-129224640D01*
X233540700Y-135331500D02*
X227280000Y-129070800D01*
X227280000Y-129070800D02*
X227280000Y-103899949D01*
X227280000Y-103899949D02*
X227280000Y-102910000D01*
G04 #@! TO.N,In_RPi_4*
X236280960Y-130235309D02*
X236280960Y-129245360D01*
X236280960Y-133136640D02*
X236280960Y-130235309D01*
X240454180Y-137309860D02*
X236280960Y-133136640D01*
X242717320Y-137309860D02*
X240454180Y-137309860D01*
X244030900Y-135445800D02*
X244030900Y-135996280D01*
X244030900Y-135996280D02*
X242717320Y-137309860D01*
G04 #@! TD*
D21*
G04 #@! TO.N,COM_EXTERNAL*
G36*
X262531494Y-94751605D02*
X263034485Y-94934182D01*
X263481979Y-95227572D01*
X263849977Y-95616039D01*
X264118738Y-96078745D01*
X264276565Y-96599847D01*
X264315001Y-97030517D01*
X264315000Y-146932538D01*
X264315000Y-146932539D01*
X264315001Y-157460198D01*
X264248395Y-158031494D01*
X264065819Y-158534483D01*
X263772427Y-158981980D01*
X263383961Y-159349977D01*
X262921253Y-159618739D01*
X262400153Y-159776565D01*
X261969495Y-159815000D01*
X193039794Y-159815000D01*
X192468506Y-159748395D01*
X191965517Y-159565819D01*
X191518020Y-159272427D01*
X191150023Y-158883961D01*
X190881261Y-158421253D01*
X190723435Y-157900153D01*
X190685000Y-157469495D01*
X190685000Y-146105159D01*
X201515000Y-146105159D01*
X201515000Y-146894841D01*
X201817199Y-147624412D01*
X202375588Y-148182801D01*
X203105159Y-148485000D01*
X203894841Y-148485000D01*
X204624412Y-148182801D01*
X205182801Y-147624412D01*
X205485000Y-146894841D01*
X205485000Y-146105159D01*
X259515000Y-146105159D01*
X259515000Y-146894841D01*
X259817199Y-147624412D01*
X260375588Y-148182801D01*
X261105159Y-148485000D01*
X261894841Y-148485000D01*
X262624412Y-148182801D01*
X263182801Y-147624412D01*
X263485000Y-146894841D01*
X263485000Y-146105159D01*
X263182801Y-145375588D01*
X262624412Y-144817199D01*
X261894841Y-144515000D01*
X261105159Y-144515000D01*
X260375588Y-144817199D01*
X259817199Y-145375588D01*
X259515000Y-146105159D01*
X205485000Y-146105159D01*
X205182801Y-145375588D01*
X204624412Y-144817199D01*
X203894841Y-144515000D01*
X203105159Y-144515000D01*
X202375588Y-144817199D01*
X201817199Y-145375588D01*
X201515000Y-146105159D01*
X190685000Y-146105159D01*
X190685000Y-142049900D01*
X208522060Y-142049900D01*
X208522060Y-143649900D01*
X208571343Y-143897665D01*
X208711691Y-144107709D01*
X208921735Y-144248057D01*
X209169500Y-144297340D01*
X210769500Y-144297340D01*
X211017265Y-144248057D01*
X211227309Y-144107709D01*
X211367657Y-143897665D01*
X211398513Y-143742539D01*
X211772077Y-144080941D01*
X212160461Y-144241804D01*
X212382500Y-144119815D01*
X212382500Y-142976900D01*
X212362500Y-142976900D01*
X212362500Y-142722900D01*
X212382500Y-142722900D01*
X212382500Y-141579985D01*
X212636500Y-141579985D01*
X212636500Y-142722900D01*
X212656500Y-142722900D01*
X212656500Y-142976900D01*
X212636500Y-142976900D01*
X212636500Y-144119815D01*
X212858539Y-144241804D01*
X213246923Y-144080941D01*
X213661889Y-143705034D01*
X213758553Y-143500792D01*
X214014923Y-143884477D01*
X214489591Y-144201640D01*
X214908167Y-144284900D01*
X215190833Y-144284900D01*
X215609409Y-144201640D01*
X216084077Y-143884477D01*
X216401240Y-143409809D01*
X216512613Y-142849900D01*
X216401240Y-142289991D01*
X216266274Y-142088000D01*
X218859860Y-142088000D01*
X218859860Y-143688000D01*
X218909143Y-143935765D01*
X219049491Y-144145809D01*
X219259535Y-144286157D01*
X219507300Y-144335440D01*
X221107300Y-144335440D01*
X221355065Y-144286157D01*
X221565109Y-144145809D01*
X221705457Y-143935765D01*
X221736313Y-143780639D01*
X222109877Y-144119041D01*
X222498261Y-144279904D01*
X222720300Y-144157915D01*
X222720300Y-143015000D01*
X222700300Y-143015000D01*
X222700300Y-142761000D01*
X222720300Y-142761000D01*
X222720300Y-141618085D01*
X222974300Y-141618085D01*
X222974300Y-142761000D01*
X222994300Y-142761000D01*
X222994300Y-143015000D01*
X222974300Y-143015000D01*
X222974300Y-144157915D01*
X223196339Y-144279904D01*
X223584723Y-144119041D01*
X223999689Y-143743134D01*
X224096353Y-143538892D01*
X224352723Y-143922577D01*
X224827391Y-144239740D01*
X225245967Y-144323000D01*
X225528633Y-144323000D01*
X225947209Y-144239740D01*
X226421877Y-143922577D01*
X226739040Y-143447909D01*
X226850413Y-142888000D01*
X226739040Y-142328091D01*
X226621046Y-142151500D01*
X229553260Y-142151500D01*
X229553260Y-143751500D01*
X229602543Y-143999265D01*
X229742891Y-144209309D01*
X229952935Y-144349657D01*
X230200700Y-144398940D01*
X231800700Y-144398940D01*
X232048465Y-144349657D01*
X232258509Y-144209309D01*
X232398857Y-143999265D01*
X232429713Y-143844139D01*
X232803277Y-144182541D01*
X233191661Y-144343404D01*
X233413700Y-144221415D01*
X233413700Y-143078500D01*
X233393700Y-143078500D01*
X233393700Y-142824500D01*
X233413700Y-142824500D01*
X233413700Y-141681585D01*
X233667700Y-141681585D01*
X233667700Y-142824500D01*
X233687700Y-142824500D01*
X233687700Y-143078500D01*
X233667700Y-143078500D01*
X233667700Y-144221415D01*
X233889739Y-144343404D01*
X234278123Y-144182541D01*
X234693089Y-143806634D01*
X234789753Y-143602392D01*
X235046123Y-143986077D01*
X235520791Y-144303240D01*
X235939367Y-144386500D01*
X236222033Y-144386500D01*
X236640609Y-144303240D01*
X237115277Y-143986077D01*
X237432440Y-143511409D01*
X237543813Y-142951500D01*
X237432440Y-142391591D01*
X237348390Y-142265800D01*
X240043460Y-142265800D01*
X240043460Y-143865800D01*
X240092743Y-144113565D01*
X240233091Y-144323609D01*
X240443135Y-144463957D01*
X240690900Y-144513240D01*
X242290900Y-144513240D01*
X242538665Y-144463957D01*
X242748709Y-144323609D01*
X242889057Y-144113565D01*
X242919913Y-143958439D01*
X243293477Y-144296841D01*
X243681861Y-144457704D01*
X243903900Y-144335715D01*
X243903900Y-143192800D01*
X243883900Y-143192800D01*
X243883900Y-142938800D01*
X243903900Y-142938800D01*
X243903900Y-141795885D01*
X244157900Y-141795885D01*
X244157900Y-142938800D01*
X244177900Y-142938800D01*
X244177900Y-143192800D01*
X244157900Y-143192800D01*
X244157900Y-144335715D01*
X244379939Y-144457704D01*
X244768323Y-144296841D01*
X245183289Y-143920934D01*
X245279953Y-143716692D01*
X245536323Y-144100377D01*
X246010991Y-144417540D01*
X246429567Y-144500800D01*
X246712233Y-144500800D01*
X247130809Y-144417540D01*
X247605477Y-144100377D01*
X247922640Y-143625709D01*
X248034013Y-143065800D01*
X247922640Y-142505891D01*
X247605477Y-142031223D01*
X247130809Y-141714060D01*
X246712233Y-141630800D01*
X246429567Y-141630800D01*
X246010991Y-141714060D01*
X245536323Y-142031223D01*
X245279953Y-142414908D01*
X245183289Y-142210666D01*
X244768323Y-141834759D01*
X244379939Y-141673896D01*
X244157900Y-141795885D01*
X243903900Y-141795885D01*
X243681861Y-141673896D01*
X243293477Y-141834759D01*
X242919913Y-142173161D01*
X242889057Y-142018035D01*
X242748709Y-141807991D01*
X242538665Y-141667643D01*
X242290900Y-141618360D01*
X240690900Y-141618360D01*
X240443135Y-141667643D01*
X240233091Y-141807991D01*
X240092743Y-142018035D01*
X240043460Y-142265800D01*
X237348390Y-142265800D01*
X237115277Y-141916923D01*
X236640609Y-141599760D01*
X236222033Y-141516500D01*
X235939367Y-141516500D01*
X235520791Y-141599760D01*
X235046123Y-141916923D01*
X234789753Y-142300608D01*
X234693089Y-142096366D01*
X234278123Y-141720459D01*
X233889739Y-141559596D01*
X233667700Y-141681585D01*
X233413700Y-141681585D01*
X233191661Y-141559596D01*
X232803277Y-141720459D01*
X232429713Y-142058861D01*
X232398857Y-141903735D01*
X232258509Y-141693691D01*
X232048465Y-141553343D01*
X231800700Y-141504060D01*
X230200700Y-141504060D01*
X229952935Y-141553343D01*
X229742891Y-141693691D01*
X229602543Y-141903735D01*
X229553260Y-142151500D01*
X226621046Y-142151500D01*
X226421877Y-141853423D01*
X225947209Y-141536260D01*
X225528633Y-141453000D01*
X225245967Y-141453000D01*
X224827391Y-141536260D01*
X224352723Y-141853423D01*
X224096353Y-142237108D01*
X223999689Y-142032866D01*
X223584723Y-141656959D01*
X223196339Y-141496096D01*
X222974300Y-141618085D01*
X222720300Y-141618085D01*
X222498261Y-141496096D01*
X222109877Y-141656959D01*
X221736313Y-141995361D01*
X221705457Y-141840235D01*
X221565109Y-141630191D01*
X221355065Y-141489843D01*
X221107300Y-141440560D01*
X219507300Y-141440560D01*
X219259535Y-141489843D01*
X219049491Y-141630191D01*
X218909143Y-141840235D01*
X218859860Y-142088000D01*
X216266274Y-142088000D01*
X216084077Y-141815323D01*
X215609409Y-141498160D01*
X215190833Y-141414900D01*
X214908167Y-141414900D01*
X214489591Y-141498160D01*
X214014923Y-141815323D01*
X213758553Y-142199008D01*
X213661889Y-141994766D01*
X213246923Y-141618859D01*
X212858539Y-141457996D01*
X212636500Y-141579985D01*
X212382500Y-141579985D01*
X212160461Y-141457996D01*
X211772077Y-141618859D01*
X211398513Y-141957261D01*
X211367657Y-141802135D01*
X211227309Y-141592091D01*
X211017265Y-141451743D01*
X210769500Y-141402460D01*
X209169500Y-141402460D01*
X208921735Y-141451743D01*
X208711691Y-141592091D01*
X208571343Y-141802135D01*
X208522060Y-142049900D01*
X190685000Y-142049900D01*
X190685000Y-135229900D01*
X208506387Y-135229900D01*
X208617760Y-135789809D01*
X208934923Y-136264477D01*
X209409591Y-136581640D01*
X209828167Y-136664900D01*
X210110833Y-136664900D01*
X210529409Y-136581640D01*
X211004077Y-136264477D01*
X211239500Y-135912142D01*
X211474923Y-136264477D01*
X211949591Y-136581640D01*
X212368167Y-136664900D01*
X212650833Y-136664900D01*
X213069409Y-136581640D01*
X213544077Y-136264477D01*
X213779500Y-135912142D01*
X214014923Y-136264477D01*
X214489591Y-136581640D01*
X214908167Y-136664900D01*
X215190833Y-136664900D01*
X215609409Y-136581640D01*
X216084077Y-136264477D01*
X216401240Y-135789809D01*
X216512613Y-135229900D01*
X216401240Y-134669991D01*
X216084077Y-134195323D01*
X215609409Y-133878160D01*
X215190833Y-133794900D01*
X214908167Y-133794900D01*
X214489591Y-133878160D01*
X214014923Y-134195323D01*
X213779500Y-134547658D01*
X213544077Y-134195323D01*
X213069409Y-133878160D01*
X212650833Y-133794900D01*
X212368167Y-133794900D01*
X211949591Y-133878160D01*
X211474923Y-134195323D01*
X211239500Y-134547658D01*
X211004077Y-134195323D01*
X210529409Y-133878160D01*
X210110833Y-133794900D01*
X209828167Y-133794900D01*
X209409591Y-133878160D01*
X208934923Y-134195323D01*
X208617760Y-134669991D01*
X208506387Y-135229900D01*
X190685000Y-135229900D01*
X190685000Y-129117701D01*
X203322420Y-129117701D01*
X203322420Y-129688579D01*
X203540886Y-130216002D01*
X203944558Y-130619674D01*
X204471981Y-130838140D01*
X205042859Y-130838140D01*
X205570282Y-130619674D01*
X205701816Y-130488140D01*
X208118698Y-130488140D01*
X208536356Y-130905798D01*
X209210796Y-131185160D01*
X209940804Y-131185160D01*
X210615244Y-130905798D01*
X211131438Y-130389604D01*
X211410800Y-129715164D01*
X211410800Y-128985156D01*
X211131438Y-128310716D01*
X210615244Y-127794522D01*
X209940804Y-127515160D01*
X209210796Y-127515160D01*
X208536356Y-127794522D01*
X208020162Y-128310716D01*
X208017087Y-128318140D01*
X205701816Y-128318140D01*
X205570282Y-128186606D01*
X205042859Y-127968140D01*
X204471981Y-127968140D01*
X203944558Y-128186606D01*
X203540886Y-128590278D01*
X203322420Y-129117701D01*
X190685000Y-129117701D01*
X190685000Y-125178161D01*
X203335120Y-125178161D01*
X203335120Y-125749039D01*
X203553586Y-126276462D01*
X203957258Y-126680134D01*
X204484681Y-126898600D01*
X205055559Y-126898600D01*
X205582982Y-126680134D01*
X205714516Y-126548600D01*
X208355503Y-126548600D01*
X208462360Y-126569855D01*
X208569217Y-126548600D01*
X208569221Y-126548600D01*
X208885706Y-126485647D01*
X209244601Y-126245841D01*
X209285147Y-126185160D01*
X209940804Y-126185160D01*
X210615244Y-125905798D01*
X211098811Y-125422231D01*
X213812968Y-128136390D01*
X213623402Y-128325956D01*
X213344040Y-129000396D01*
X213344040Y-129730404D01*
X213623402Y-130404844D01*
X214139596Y-130921038D01*
X214814036Y-131200400D01*
X215544044Y-131200400D01*
X216218484Y-130921038D01*
X216734678Y-130404844D01*
X217014040Y-129730404D01*
X217014040Y-129000396D01*
X216734678Y-128325956D01*
X216262585Y-127853863D01*
X216201087Y-127544694D01*
X216021813Y-127276391D01*
X216021812Y-127276390D01*
X215961281Y-127185799D01*
X215870690Y-127125268D01*
X214945821Y-126200400D01*
X215544044Y-126200400D01*
X216218484Y-125921038D01*
X216734678Y-125404844D01*
X217014040Y-124730404D01*
X217014040Y-124000396D01*
X216734678Y-123325956D01*
X216218484Y-122809762D01*
X215544044Y-122530400D01*
X214878460Y-122530400D01*
X214821818Y-122473757D01*
X214821814Y-122473752D01*
X214160920Y-121812859D01*
X214160920Y-120929871D01*
X214814036Y-121200400D01*
X215544044Y-121200400D01*
X216218484Y-120921038D01*
X216734678Y-120404844D01*
X217014040Y-119730404D01*
X217014040Y-119000396D01*
X216734678Y-118325956D01*
X216264040Y-117855318D01*
X216264040Y-116843016D01*
X216285295Y-116736159D01*
X216264040Y-116629300D01*
X216264040Y-116629299D01*
X216201087Y-116312814D01*
X215961281Y-115953919D01*
X215870688Y-115893387D01*
X209724900Y-109747600D01*
X210575800Y-109747600D01*
X210823565Y-109698317D01*
X211033609Y-109557969D01*
X211173957Y-109347925D01*
X211223240Y-109100160D01*
X211223240Y-109085160D01*
X213531600Y-109085160D01*
X213531600Y-109115400D01*
X213580883Y-109363165D01*
X213721231Y-109573209D01*
X213931275Y-109713557D01*
X214179040Y-109762840D01*
X214194041Y-109762840D01*
X214194041Y-110502507D01*
X214174744Y-110599520D01*
X214251191Y-110983847D01*
X214413942Y-111227422D01*
X214413945Y-111227425D01*
X214468896Y-111309665D01*
X214551136Y-111364616D01*
X217059680Y-113873161D01*
X217059680Y-114080708D01*
X217262922Y-114571377D01*
X217409680Y-114718135D01*
X217409681Y-116596067D01*
X217390384Y-116693080D01*
X217466831Y-117077407D01*
X217629582Y-117320982D01*
X217629585Y-117320985D01*
X217684536Y-117403225D01*
X217766776Y-117458176D01*
X221940640Y-121632040D01*
X221940641Y-127434495D01*
X221940640Y-127434500D01*
X221940640Y-127618485D01*
X221793882Y-127765243D01*
X221590640Y-128255912D01*
X221590640Y-128787008D01*
X221793882Y-129277677D01*
X222169423Y-129653218D01*
X222660092Y-129856460D01*
X223191188Y-129856460D01*
X223471641Y-129740292D01*
X223471641Y-133250658D01*
X222889300Y-133833000D01*
X222705967Y-133833000D01*
X222287391Y-133916260D01*
X221812723Y-134233423D01*
X221577300Y-134585758D01*
X221341877Y-134233423D01*
X220867209Y-133916260D01*
X220448633Y-133833000D01*
X220165967Y-133833000D01*
X219747391Y-133916260D01*
X219272723Y-134233423D01*
X218955560Y-134708091D01*
X218844187Y-135268000D01*
X218955560Y-135827909D01*
X219272723Y-136302577D01*
X219747391Y-136619740D01*
X220165967Y-136703000D01*
X220448633Y-136703000D01*
X220867209Y-136619740D01*
X221341877Y-136302577D01*
X221577300Y-135950242D01*
X221812723Y-136302577D01*
X222287391Y-136619740D01*
X222705967Y-136703000D01*
X222988633Y-136703000D01*
X223407209Y-136619740D01*
X223881877Y-136302577D01*
X224117300Y-135950242D01*
X224352723Y-136302577D01*
X224827391Y-136619740D01*
X225245967Y-136703000D01*
X225528633Y-136703000D01*
X225947209Y-136619740D01*
X226421877Y-136302577D01*
X226739040Y-135827909D01*
X226850413Y-135268000D01*
X226739040Y-134708091D01*
X226421877Y-134233423D01*
X225947209Y-133916260D01*
X225528633Y-133833000D01*
X225426259Y-133833000D01*
X225441641Y-133755671D01*
X225441641Y-133755667D01*
X225460937Y-133658659D01*
X225441641Y-133561651D01*
X225441641Y-133039603D01*
X225449876Y-133045105D01*
X231957975Y-139553205D01*
X232012926Y-139635445D01*
X232095166Y-139690396D01*
X232095168Y-139690398D01*
X232338743Y-139853149D01*
X232626059Y-139910300D01*
X232626063Y-139910300D01*
X232723071Y-139929596D01*
X232820079Y-139910300D01*
X247424152Y-139910300D01*
X247521160Y-139929596D01*
X247618168Y-139910300D01*
X247618172Y-139910300D01*
X247905488Y-139853149D01*
X248231305Y-139635445D01*
X248286258Y-139553202D01*
X257694085Y-130145376D01*
X257776325Y-130090425D01*
X257831276Y-130008185D01*
X257831278Y-130008183D01*
X257994029Y-129764608D01*
X258004350Y-129712720D01*
X258051180Y-129477292D01*
X258051180Y-129477288D01*
X258070476Y-129380280D01*
X258051180Y-129283272D01*
X258051180Y-101814965D01*
X258070476Y-101717957D01*
X258051180Y-101620949D01*
X258051180Y-101620946D01*
X257994029Y-101333630D01*
X257776325Y-101007813D01*
X257694082Y-100952860D01*
X256959727Y-100218505D01*
X257209418Y-100168839D01*
X257700625Y-99840625D01*
X258028839Y-99349418D01*
X258144092Y-98770000D01*
X258028839Y-98190582D01*
X257700625Y-97699375D01*
X257402239Y-97500000D01*
X257700625Y-97300625D01*
X257831231Y-97105159D01*
X259515000Y-97105159D01*
X259515000Y-97894841D01*
X259817199Y-98624412D01*
X260375588Y-99182801D01*
X261105159Y-99485000D01*
X261894841Y-99485000D01*
X262624412Y-99182801D01*
X263182801Y-98624412D01*
X263485000Y-97894841D01*
X263485000Y-97105159D01*
X263182801Y-96375588D01*
X262624412Y-95817199D01*
X261894841Y-95515000D01*
X261105159Y-95515000D01*
X260375588Y-95817199D01*
X259817199Y-96375588D01*
X259515000Y-97105159D01*
X257831231Y-97105159D01*
X258028839Y-96809418D01*
X258144092Y-96230000D01*
X258028839Y-95650582D01*
X257700625Y-95159375D01*
X257209418Y-94831161D01*
X256776256Y-94745000D01*
X256483744Y-94745000D01*
X256050582Y-94831161D01*
X255559375Y-95159375D01*
X255360000Y-95457761D01*
X255160625Y-95159375D01*
X254669418Y-94831161D01*
X254236256Y-94745000D01*
X253943744Y-94745000D01*
X253510582Y-94831161D01*
X253019375Y-95159375D01*
X252820000Y-95457761D01*
X252620625Y-95159375D01*
X252129418Y-94831161D01*
X251696256Y-94745000D01*
X251403744Y-94745000D01*
X250970582Y-94831161D01*
X250479375Y-95159375D01*
X250280000Y-95457761D01*
X250080625Y-95159375D01*
X249589418Y-94831161D01*
X249156256Y-94745000D01*
X248863744Y-94745000D01*
X248430582Y-94831161D01*
X247939375Y-95159375D01*
X247740000Y-95457761D01*
X247540625Y-95159375D01*
X247049418Y-94831161D01*
X246616256Y-94745000D01*
X246323744Y-94745000D01*
X245890582Y-94831161D01*
X245399375Y-95159375D01*
X245200000Y-95457761D01*
X245000625Y-95159375D01*
X244509418Y-94831161D01*
X244076256Y-94745000D01*
X243783744Y-94745000D01*
X243350582Y-94831161D01*
X242859375Y-95159375D01*
X242660000Y-95457761D01*
X242460625Y-95159375D01*
X241969418Y-94831161D01*
X241536256Y-94745000D01*
X241243744Y-94745000D01*
X240810582Y-94831161D01*
X240319375Y-95159375D01*
X240120000Y-95457761D01*
X239920625Y-95159375D01*
X239429418Y-94831161D01*
X238996256Y-94745000D01*
X238703744Y-94745000D01*
X238270582Y-94831161D01*
X237779375Y-95159375D01*
X237580000Y-95457761D01*
X237380625Y-95159375D01*
X236889418Y-94831161D01*
X236456256Y-94745000D01*
X236163744Y-94745000D01*
X235730582Y-94831161D01*
X235239375Y-95159375D01*
X235040000Y-95457761D01*
X234840625Y-95159375D01*
X234349418Y-94831161D01*
X233916256Y-94745000D01*
X233623744Y-94745000D01*
X233190582Y-94831161D01*
X232699375Y-95159375D01*
X232500000Y-95457761D01*
X232300625Y-95159375D01*
X231809418Y-94831161D01*
X231376256Y-94745000D01*
X231083744Y-94745000D01*
X230650582Y-94831161D01*
X230159375Y-95159375D01*
X229960000Y-95457761D01*
X229760625Y-95159375D01*
X229269418Y-94831161D01*
X228836256Y-94745000D01*
X228543744Y-94745000D01*
X228110582Y-94831161D01*
X227619375Y-95159375D01*
X227420000Y-95457761D01*
X227220625Y-95159375D01*
X226729418Y-94831161D01*
X226296256Y-94745000D01*
X226003744Y-94745000D01*
X225570582Y-94831161D01*
X225079375Y-95159375D01*
X224880000Y-95457761D01*
X224680625Y-95159375D01*
X224189418Y-94831161D01*
X223756256Y-94745000D01*
X223463744Y-94745000D01*
X223030582Y-94831161D01*
X222539375Y-95159375D01*
X222340000Y-95457761D01*
X222140625Y-95159375D01*
X221649418Y-94831161D01*
X221216256Y-94745000D01*
X220923744Y-94745000D01*
X220490582Y-94831161D01*
X219999375Y-95159375D01*
X219800000Y-95457761D01*
X219600625Y-95159375D01*
X219109418Y-94831161D01*
X218676256Y-94745000D01*
X218383744Y-94745000D01*
X217950582Y-94831161D01*
X217459375Y-95159375D01*
X217260000Y-95457761D01*
X217060625Y-95159375D01*
X216569418Y-94831161D01*
X216136256Y-94745000D01*
X215843744Y-94745000D01*
X215410582Y-94831161D01*
X214919375Y-95159375D01*
X214720000Y-95457761D01*
X214520625Y-95159375D01*
X214029418Y-94831161D01*
X213596256Y-94745000D01*
X213303744Y-94745000D01*
X212870582Y-94831161D01*
X212379375Y-95159375D01*
X212180000Y-95457761D01*
X211980625Y-95159375D01*
X211489418Y-94831161D01*
X211056256Y-94745000D01*
X210763744Y-94745000D01*
X210330582Y-94831161D01*
X209839375Y-95159375D01*
X209640000Y-95457761D01*
X209440625Y-95159375D01*
X208949418Y-94831161D01*
X208516256Y-94745000D01*
X208223744Y-94745000D01*
X207790582Y-94831161D01*
X207299375Y-95159375D01*
X206971161Y-95650582D01*
X206855908Y-96230000D01*
X206971161Y-96809418D01*
X207299375Y-97300625D01*
X207317619Y-97312816D01*
X207272235Y-97321843D01*
X207062191Y-97462191D01*
X206921843Y-97672235D01*
X206872560Y-97920000D01*
X206872560Y-99620000D01*
X206921843Y-99867765D01*
X207062191Y-100077809D01*
X207272235Y-100218157D01*
X207520000Y-100267440D01*
X207597585Y-100267440D01*
X207237142Y-100627883D01*
X207033900Y-101118552D01*
X207033900Y-101326100D01*
X206580216Y-101779784D01*
X206497976Y-101834735D01*
X206443025Y-101916975D01*
X206443022Y-101916978D01*
X206280271Y-102160553D01*
X206203824Y-102544880D01*
X206223121Y-102641893D01*
X206223120Y-105650712D01*
X206203824Y-105747720D01*
X206223120Y-105844728D01*
X206223120Y-105844731D01*
X206280271Y-106132047D01*
X206497975Y-106457865D01*
X206580218Y-106512818D01*
X207928360Y-107860961D01*
X207928360Y-107951060D01*
X207116576Y-107139276D01*
X207056041Y-107048679D01*
X206697146Y-106808873D01*
X206380661Y-106745920D01*
X206380657Y-106745920D01*
X206273800Y-106724665D01*
X206166943Y-106745920D01*
X205734836Y-106745920D01*
X205603302Y-106614386D01*
X205075879Y-106395920D01*
X204505001Y-106395920D01*
X203977578Y-106614386D01*
X203573906Y-107018058D01*
X203355440Y-107545481D01*
X203355440Y-108116359D01*
X203573906Y-108643782D01*
X203977578Y-109047454D01*
X204505001Y-109265920D01*
X205075879Y-109265920D01*
X205603302Y-109047454D01*
X205734836Y-108915920D01*
X205824380Y-108915920D01*
X207591380Y-110682920D01*
X205719596Y-110682920D01*
X205588062Y-110551386D01*
X205060639Y-110332920D01*
X204489761Y-110332920D01*
X203962338Y-110551386D01*
X203558666Y-110955058D01*
X203340200Y-111482481D01*
X203340200Y-112053359D01*
X203558666Y-112580782D01*
X203962338Y-112984454D01*
X204489761Y-113202920D01*
X205060639Y-113202920D01*
X205588062Y-112984454D01*
X205719596Y-112852920D01*
X207292500Y-112852920D01*
X209130620Y-114691040D01*
X205739916Y-114691040D01*
X205608382Y-114559506D01*
X205080959Y-114341040D01*
X204510081Y-114341040D01*
X203982658Y-114559506D01*
X203578986Y-114963178D01*
X203360520Y-115490601D01*
X203360520Y-116061479D01*
X203578986Y-116588902D01*
X203982658Y-116992574D01*
X204510081Y-117211040D01*
X205080959Y-117211040D01*
X205608382Y-116992574D01*
X205739916Y-116861040D01*
X209014620Y-116861040D01*
X209668739Y-117515160D01*
X209210796Y-117515160D01*
X208536356Y-117794522D01*
X208020162Y-118310716D01*
X207740800Y-118985156D01*
X207740800Y-119650740D01*
X206998200Y-120393340D01*
X205729756Y-120393340D01*
X205598222Y-120261806D01*
X205070799Y-120043340D01*
X204499921Y-120043340D01*
X203972498Y-120261806D01*
X203568826Y-120665478D01*
X203350360Y-121192901D01*
X203350360Y-121763779D01*
X203568826Y-122291202D01*
X203972498Y-122694874D01*
X204499921Y-122913340D01*
X205070799Y-122913340D01*
X205598222Y-122694874D01*
X205729756Y-122563340D01*
X207340763Y-122563340D01*
X207447620Y-122584595D01*
X207554477Y-122563340D01*
X207554481Y-122563340D01*
X207870966Y-122500387D01*
X208229861Y-122260581D01*
X208290396Y-122169984D01*
X209275220Y-121185160D01*
X209940804Y-121185160D01*
X210615244Y-120905798D01*
X210682821Y-120838221D01*
X210682820Y-122862098D01*
X210615244Y-122794522D01*
X209940804Y-122515160D01*
X209210796Y-122515160D01*
X208536356Y-122794522D01*
X208020162Y-123310716D01*
X207740800Y-123985156D01*
X207740800Y-124378600D01*
X205714516Y-124378600D01*
X205582982Y-124247066D01*
X205055559Y-124028600D01*
X204484681Y-124028600D01*
X203957258Y-124247066D01*
X203553586Y-124650738D01*
X203335120Y-125178161D01*
X190685000Y-125178161D01*
X190685000Y-97105159D01*
X201515000Y-97105159D01*
X201515000Y-97894841D01*
X201817199Y-98624412D01*
X202375588Y-99182801D01*
X203105159Y-99485000D01*
X203894841Y-99485000D01*
X204624412Y-99182801D01*
X205182801Y-98624412D01*
X205485000Y-97894841D01*
X205485000Y-97105159D01*
X205182801Y-96375588D01*
X204624412Y-95817199D01*
X203894841Y-95515000D01*
X203105159Y-95515000D01*
X202375588Y-95817199D01*
X201817199Y-96375588D01*
X201515000Y-97105159D01*
X190685000Y-97105159D01*
X190685000Y-97039793D01*
X190751605Y-96468506D01*
X190934182Y-95965515D01*
X191227572Y-95518021D01*
X191616039Y-95150023D01*
X192078745Y-94881262D01*
X192599847Y-94723435D01*
X193030505Y-94685000D01*
X261960207Y-94685000D01*
X262531494Y-94751605D01*
X262531494Y-94751605D01*
G37*
X262531494Y-94751605D02*
X263034485Y-94934182D01*
X263481979Y-95227572D01*
X263849977Y-95616039D01*
X264118738Y-96078745D01*
X264276565Y-96599847D01*
X264315001Y-97030517D01*
X264315000Y-146932538D01*
X264315000Y-146932539D01*
X264315001Y-157460198D01*
X264248395Y-158031494D01*
X264065819Y-158534483D01*
X263772427Y-158981980D01*
X263383961Y-159349977D01*
X262921253Y-159618739D01*
X262400153Y-159776565D01*
X261969495Y-159815000D01*
X193039794Y-159815000D01*
X192468506Y-159748395D01*
X191965517Y-159565819D01*
X191518020Y-159272427D01*
X191150023Y-158883961D01*
X190881261Y-158421253D01*
X190723435Y-157900153D01*
X190685000Y-157469495D01*
X190685000Y-146105159D01*
X201515000Y-146105159D01*
X201515000Y-146894841D01*
X201817199Y-147624412D01*
X202375588Y-148182801D01*
X203105159Y-148485000D01*
X203894841Y-148485000D01*
X204624412Y-148182801D01*
X205182801Y-147624412D01*
X205485000Y-146894841D01*
X205485000Y-146105159D01*
X259515000Y-146105159D01*
X259515000Y-146894841D01*
X259817199Y-147624412D01*
X260375588Y-148182801D01*
X261105159Y-148485000D01*
X261894841Y-148485000D01*
X262624412Y-148182801D01*
X263182801Y-147624412D01*
X263485000Y-146894841D01*
X263485000Y-146105159D01*
X263182801Y-145375588D01*
X262624412Y-144817199D01*
X261894841Y-144515000D01*
X261105159Y-144515000D01*
X260375588Y-144817199D01*
X259817199Y-145375588D01*
X259515000Y-146105159D01*
X205485000Y-146105159D01*
X205182801Y-145375588D01*
X204624412Y-144817199D01*
X203894841Y-144515000D01*
X203105159Y-144515000D01*
X202375588Y-144817199D01*
X201817199Y-145375588D01*
X201515000Y-146105159D01*
X190685000Y-146105159D01*
X190685000Y-142049900D01*
X208522060Y-142049900D01*
X208522060Y-143649900D01*
X208571343Y-143897665D01*
X208711691Y-144107709D01*
X208921735Y-144248057D01*
X209169500Y-144297340D01*
X210769500Y-144297340D01*
X211017265Y-144248057D01*
X211227309Y-144107709D01*
X211367657Y-143897665D01*
X211398513Y-143742539D01*
X211772077Y-144080941D01*
X212160461Y-144241804D01*
X212382500Y-144119815D01*
X212382500Y-142976900D01*
X212362500Y-142976900D01*
X212362500Y-142722900D01*
X212382500Y-142722900D01*
X212382500Y-141579985D01*
X212636500Y-141579985D01*
X212636500Y-142722900D01*
X212656500Y-142722900D01*
X212656500Y-142976900D01*
X212636500Y-142976900D01*
X212636500Y-144119815D01*
X212858539Y-144241804D01*
X213246923Y-144080941D01*
X213661889Y-143705034D01*
X213758553Y-143500792D01*
X214014923Y-143884477D01*
X214489591Y-144201640D01*
X214908167Y-144284900D01*
X215190833Y-144284900D01*
X215609409Y-144201640D01*
X216084077Y-143884477D01*
X216401240Y-143409809D01*
X216512613Y-142849900D01*
X216401240Y-142289991D01*
X216266274Y-142088000D01*
X218859860Y-142088000D01*
X218859860Y-143688000D01*
X218909143Y-143935765D01*
X219049491Y-144145809D01*
X219259535Y-144286157D01*
X219507300Y-144335440D01*
X221107300Y-144335440D01*
X221355065Y-144286157D01*
X221565109Y-144145809D01*
X221705457Y-143935765D01*
X221736313Y-143780639D01*
X222109877Y-144119041D01*
X222498261Y-144279904D01*
X222720300Y-144157915D01*
X222720300Y-143015000D01*
X222700300Y-143015000D01*
X222700300Y-142761000D01*
X222720300Y-142761000D01*
X222720300Y-141618085D01*
X222974300Y-141618085D01*
X222974300Y-142761000D01*
X222994300Y-142761000D01*
X222994300Y-143015000D01*
X222974300Y-143015000D01*
X222974300Y-144157915D01*
X223196339Y-144279904D01*
X223584723Y-144119041D01*
X223999689Y-143743134D01*
X224096353Y-143538892D01*
X224352723Y-143922577D01*
X224827391Y-144239740D01*
X225245967Y-144323000D01*
X225528633Y-144323000D01*
X225947209Y-144239740D01*
X226421877Y-143922577D01*
X226739040Y-143447909D01*
X226850413Y-142888000D01*
X226739040Y-142328091D01*
X226621046Y-142151500D01*
X229553260Y-142151500D01*
X229553260Y-143751500D01*
X229602543Y-143999265D01*
X229742891Y-144209309D01*
X229952935Y-144349657D01*
X230200700Y-144398940D01*
X231800700Y-144398940D01*
X232048465Y-144349657D01*
X232258509Y-144209309D01*
X232398857Y-143999265D01*
X232429713Y-143844139D01*
X232803277Y-144182541D01*
X233191661Y-144343404D01*
X233413700Y-144221415D01*
X233413700Y-143078500D01*
X233393700Y-143078500D01*
X233393700Y-142824500D01*
X233413700Y-142824500D01*
X233413700Y-141681585D01*
X233667700Y-141681585D01*
X233667700Y-142824500D01*
X233687700Y-142824500D01*
X233687700Y-143078500D01*
X233667700Y-143078500D01*
X233667700Y-144221415D01*
X233889739Y-144343404D01*
X234278123Y-144182541D01*
X234693089Y-143806634D01*
X234789753Y-143602392D01*
X235046123Y-143986077D01*
X235520791Y-144303240D01*
X235939367Y-144386500D01*
X236222033Y-144386500D01*
X236640609Y-144303240D01*
X237115277Y-143986077D01*
X237432440Y-143511409D01*
X237543813Y-142951500D01*
X237432440Y-142391591D01*
X237348390Y-142265800D01*
X240043460Y-142265800D01*
X240043460Y-143865800D01*
X240092743Y-144113565D01*
X240233091Y-144323609D01*
X240443135Y-144463957D01*
X240690900Y-144513240D01*
X242290900Y-144513240D01*
X242538665Y-144463957D01*
X242748709Y-144323609D01*
X242889057Y-144113565D01*
X242919913Y-143958439D01*
X243293477Y-144296841D01*
X243681861Y-144457704D01*
X243903900Y-144335715D01*
X243903900Y-143192800D01*
X243883900Y-143192800D01*
X243883900Y-142938800D01*
X243903900Y-142938800D01*
X243903900Y-141795885D01*
X244157900Y-141795885D01*
X244157900Y-142938800D01*
X244177900Y-142938800D01*
X244177900Y-143192800D01*
X244157900Y-143192800D01*
X244157900Y-144335715D01*
X244379939Y-144457704D01*
X244768323Y-144296841D01*
X245183289Y-143920934D01*
X245279953Y-143716692D01*
X245536323Y-144100377D01*
X246010991Y-144417540D01*
X246429567Y-144500800D01*
X246712233Y-144500800D01*
X247130809Y-144417540D01*
X247605477Y-144100377D01*
X247922640Y-143625709D01*
X248034013Y-143065800D01*
X247922640Y-142505891D01*
X247605477Y-142031223D01*
X247130809Y-141714060D01*
X246712233Y-141630800D01*
X246429567Y-141630800D01*
X246010991Y-141714060D01*
X245536323Y-142031223D01*
X245279953Y-142414908D01*
X245183289Y-142210666D01*
X244768323Y-141834759D01*
X244379939Y-141673896D01*
X244157900Y-141795885D01*
X243903900Y-141795885D01*
X243681861Y-141673896D01*
X243293477Y-141834759D01*
X242919913Y-142173161D01*
X242889057Y-142018035D01*
X242748709Y-141807991D01*
X242538665Y-141667643D01*
X242290900Y-141618360D01*
X240690900Y-141618360D01*
X240443135Y-141667643D01*
X240233091Y-141807991D01*
X240092743Y-142018035D01*
X240043460Y-142265800D01*
X237348390Y-142265800D01*
X237115277Y-141916923D01*
X236640609Y-141599760D01*
X236222033Y-141516500D01*
X235939367Y-141516500D01*
X235520791Y-141599760D01*
X235046123Y-141916923D01*
X234789753Y-142300608D01*
X234693089Y-142096366D01*
X234278123Y-141720459D01*
X233889739Y-141559596D01*
X233667700Y-141681585D01*
X233413700Y-141681585D01*
X233191661Y-141559596D01*
X232803277Y-141720459D01*
X232429713Y-142058861D01*
X232398857Y-141903735D01*
X232258509Y-141693691D01*
X232048465Y-141553343D01*
X231800700Y-141504060D01*
X230200700Y-141504060D01*
X229952935Y-141553343D01*
X229742891Y-141693691D01*
X229602543Y-141903735D01*
X229553260Y-142151500D01*
X226621046Y-142151500D01*
X226421877Y-141853423D01*
X225947209Y-141536260D01*
X225528633Y-141453000D01*
X225245967Y-141453000D01*
X224827391Y-141536260D01*
X224352723Y-141853423D01*
X224096353Y-142237108D01*
X223999689Y-142032866D01*
X223584723Y-141656959D01*
X223196339Y-141496096D01*
X222974300Y-141618085D01*
X222720300Y-141618085D01*
X222498261Y-141496096D01*
X222109877Y-141656959D01*
X221736313Y-141995361D01*
X221705457Y-141840235D01*
X221565109Y-141630191D01*
X221355065Y-141489843D01*
X221107300Y-141440560D01*
X219507300Y-141440560D01*
X219259535Y-141489843D01*
X219049491Y-141630191D01*
X218909143Y-141840235D01*
X218859860Y-142088000D01*
X216266274Y-142088000D01*
X216084077Y-141815323D01*
X215609409Y-141498160D01*
X215190833Y-141414900D01*
X214908167Y-141414900D01*
X214489591Y-141498160D01*
X214014923Y-141815323D01*
X213758553Y-142199008D01*
X213661889Y-141994766D01*
X213246923Y-141618859D01*
X212858539Y-141457996D01*
X212636500Y-141579985D01*
X212382500Y-141579985D01*
X212160461Y-141457996D01*
X211772077Y-141618859D01*
X211398513Y-141957261D01*
X211367657Y-141802135D01*
X211227309Y-141592091D01*
X211017265Y-141451743D01*
X210769500Y-141402460D01*
X209169500Y-141402460D01*
X208921735Y-141451743D01*
X208711691Y-141592091D01*
X208571343Y-141802135D01*
X208522060Y-142049900D01*
X190685000Y-142049900D01*
X190685000Y-135229900D01*
X208506387Y-135229900D01*
X208617760Y-135789809D01*
X208934923Y-136264477D01*
X209409591Y-136581640D01*
X209828167Y-136664900D01*
X210110833Y-136664900D01*
X210529409Y-136581640D01*
X211004077Y-136264477D01*
X211239500Y-135912142D01*
X211474923Y-136264477D01*
X211949591Y-136581640D01*
X212368167Y-136664900D01*
X212650833Y-136664900D01*
X213069409Y-136581640D01*
X213544077Y-136264477D01*
X213779500Y-135912142D01*
X214014923Y-136264477D01*
X214489591Y-136581640D01*
X214908167Y-136664900D01*
X215190833Y-136664900D01*
X215609409Y-136581640D01*
X216084077Y-136264477D01*
X216401240Y-135789809D01*
X216512613Y-135229900D01*
X216401240Y-134669991D01*
X216084077Y-134195323D01*
X215609409Y-133878160D01*
X215190833Y-133794900D01*
X214908167Y-133794900D01*
X214489591Y-133878160D01*
X214014923Y-134195323D01*
X213779500Y-134547658D01*
X213544077Y-134195323D01*
X213069409Y-133878160D01*
X212650833Y-133794900D01*
X212368167Y-133794900D01*
X211949591Y-133878160D01*
X211474923Y-134195323D01*
X211239500Y-134547658D01*
X211004077Y-134195323D01*
X210529409Y-133878160D01*
X210110833Y-133794900D01*
X209828167Y-133794900D01*
X209409591Y-133878160D01*
X208934923Y-134195323D01*
X208617760Y-134669991D01*
X208506387Y-135229900D01*
X190685000Y-135229900D01*
X190685000Y-129117701D01*
X203322420Y-129117701D01*
X203322420Y-129688579D01*
X203540886Y-130216002D01*
X203944558Y-130619674D01*
X204471981Y-130838140D01*
X205042859Y-130838140D01*
X205570282Y-130619674D01*
X205701816Y-130488140D01*
X208118698Y-130488140D01*
X208536356Y-130905798D01*
X209210796Y-131185160D01*
X209940804Y-131185160D01*
X210615244Y-130905798D01*
X211131438Y-130389604D01*
X211410800Y-129715164D01*
X211410800Y-128985156D01*
X211131438Y-128310716D01*
X210615244Y-127794522D01*
X209940804Y-127515160D01*
X209210796Y-127515160D01*
X208536356Y-127794522D01*
X208020162Y-128310716D01*
X208017087Y-128318140D01*
X205701816Y-128318140D01*
X205570282Y-128186606D01*
X205042859Y-127968140D01*
X204471981Y-127968140D01*
X203944558Y-128186606D01*
X203540886Y-128590278D01*
X203322420Y-129117701D01*
X190685000Y-129117701D01*
X190685000Y-125178161D01*
X203335120Y-125178161D01*
X203335120Y-125749039D01*
X203553586Y-126276462D01*
X203957258Y-126680134D01*
X204484681Y-126898600D01*
X205055559Y-126898600D01*
X205582982Y-126680134D01*
X205714516Y-126548600D01*
X208355503Y-126548600D01*
X208462360Y-126569855D01*
X208569217Y-126548600D01*
X208569221Y-126548600D01*
X208885706Y-126485647D01*
X209244601Y-126245841D01*
X209285147Y-126185160D01*
X209940804Y-126185160D01*
X210615244Y-125905798D01*
X211098811Y-125422231D01*
X213812968Y-128136390D01*
X213623402Y-128325956D01*
X213344040Y-129000396D01*
X213344040Y-129730404D01*
X213623402Y-130404844D01*
X214139596Y-130921038D01*
X214814036Y-131200400D01*
X215544044Y-131200400D01*
X216218484Y-130921038D01*
X216734678Y-130404844D01*
X217014040Y-129730404D01*
X217014040Y-129000396D01*
X216734678Y-128325956D01*
X216262585Y-127853863D01*
X216201087Y-127544694D01*
X216021813Y-127276391D01*
X216021812Y-127276390D01*
X215961281Y-127185799D01*
X215870690Y-127125268D01*
X214945821Y-126200400D01*
X215544044Y-126200400D01*
X216218484Y-125921038D01*
X216734678Y-125404844D01*
X217014040Y-124730404D01*
X217014040Y-124000396D01*
X216734678Y-123325956D01*
X216218484Y-122809762D01*
X215544044Y-122530400D01*
X214878460Y-122530400D01*
X214821818Y-122473757D01*
X214821814Y-122473752D01*
X214160920Y-121812859D01*
X214160920Y-120929871D01*
X214814036Y-121200400D01*
X215544044Y-121200400D01*
X216218484Y-120921038D01*
X216734678Y-120404844D01*
X217014040Y-119730404D01*
X217014040Y-119000396D01*
X216734678Y-118325956D01*
X216264040Y-117855318D01*
X216264040Y-116843016D01*
X216285295Y-116736159D01*
X216264040Y-116629300D01*
X216264040Y-116629299D01*
X216201087Y-116312814D01*
X215961281Y-115953919D01*
X215870688Y-115893387D01*
X209724900Y-109747600D01*
X210575800Y-109747600D01*
X210823565Y-109698317D01*
X211033609Y-109557969D01*
X211173957Y-109347925D01*
X211223240Y-109100160D01*
X211223240Y-109085160D01*
X213531600Y-109085160D01*
X213531600Y-109115400D01*
X213580883Y-109363165D01*
X213721231Y-109573209D01*
X213931275Y-109713557D01*
X214179040Y-109762840D01*
X214194041Y-109762840D01*
X214194041Y-110502507D01*
X214174744Y-110599520D01*
X214251191Y-110983847D01*
X214413942Y-111227422D01*
X214413945Y-111227425D01*
X214468896Y-111309665D01*
X214551136Y-111364616D01*
X217059680Y-113873161D01*
X217059680Y-114080708D01*
X217262922Y-114571377D01*
X217409680Y-114718135D01*
X217409681Y-116596067D01*
X217390384Y-116693080D01*
X217466831Y-117077407D01*
X217629582Y-117320982D01*
X217629585Y-117320985D01*
X217684536Y-117403225D01*
X217766776Y-117458176D01*
X221940640Y-121632040D01*
X221940641Y-127434495D01*
X221940640Y-127434500D01*
X221940640Y-127618485D01*
X221793882Y-127765243D01*
X221590640Y-128255912D01*
X221590640Y-128787008D01*
X221793882Y-129277677D01*
X222169423Y-129653218D01*
X222660092Y-129856460D01*
X223191188Y-129856460D01*
X223471641Y-129740292D01*
X223471641Y-133250658D01*
X222889300Y-133833000D01*
X222705967Y-133833000D01*
X222287391Y-133916260D01*
X221812723Y-134233423D01*
X221577300Y-134585758D01*
X221341877Y-134233423D01*
X220867209Y-133916260D01*
X220448633Y-133833000D01*
X220165967Y-133833000D01*
X219747391Y-133916260D01*
X219272723Y-134233423D01*
X218955560Y-134708091D01*
X218844187Y-135268000D01*
X218955560Y-135827909D01*
X219272723Y-136302577D01*
X219747391Y-136619740D01*
X220165967Y-136703000D01*
X220448633Y-136703000D01*
X220867209Y-136619740D01*
X221341877Y-136302577D01*
X221577300Y-135950242D01*
X221812723Y-136302577D01*
X222287391Y-136619740D01*
X222705967Y-136703000D01*
X222988633Y-136703000D01*
X223407209Y-136619740D01*
X223881877Y-136302577D01*
X224117300Y-135950242D01*
X224352723Y-136302577D01*
X224827391Y-136619740D01*
X225245967Y-136703000D01*
X225528633Y-136703000D01*
X225947209Y-136619740D01*
X226421877Y-136302577D01*
X226739040Y-135827909D01*
X226850413Y-135268000D01*
X226739040Y-134708091D01*
X226421877Y-134233423D01*
X225947209Y-133916260D01*
X225528633Y-133833000D01*
X225426259Y-133833000D01*
X225441641Y-133755671D01*
X225441641Y-133755667D01*
X225460937Y-133658659D01*
X225441641Y-133561651D01*
X225441641Y-133039603D01*
X225449876Y-133045105D01*
X231957975Y-139553205D01*
X232012926Y-139635445D01*
X232095166Y-139690396D01*
X232095168Y-139690398D01*
X232338743Y-139853149D01*
X232626059Y-139910300D01*
X232626063Y-139910300D01*
X232723071Y-139929596D01*
X232820079Y-139910300D01*
X247424152Y-139910300D01*
X247521160Y-139929596D01*
X247618168Y-139910300D01*
X247618172Y-139910300D01*
X247905488Y-139853149D01*
X248231305Y-139635445D01*
X248286258Y-139553202D01*
X257694085Y-130145376D01*
X257776325Y-130090425D01*
X257831276Y-130008185D01*
X257831278Y-130008183D01*
X257994029Y-129764608D01*
X258004350Y-129712720D01*
X258051180Y-129477292D01*
X258051180Y-129477288D01*
X258070476Y-129380280D01*
X258051180Y-129283272D01*
X258051180Y-101814965D01*
X258070476Y-101717957D01*
X258051180Y-101620949D01*
X258051180Y-101620946D01*
X257994029Y-101333630D01*
X257776325Y-101007813D01*
X257694082Y-100952860D01*
X256959727Y-100218505D01*
X257209418Y-100168839D01*
X257700625Y-99840625D01*
X258028839Y-99349418D01*
X258144092Y-98770000D01*
X258028839Y-98190582D01*
X257700625Y-97699375D01*
X257402239Y-97500000D01*
X257700625Y-97300625D01*
X257831231Y-97105159D01*
X259515000Y-97105159D01*
X259515000Y-97894841D01*
X259817199Y-98624412D01*
X260375588Y-99182801D01*
X261105159Y-99485000D01*
X261894841Y-99485000D01*
X262624412Y-99182801D01*
X263182801Y-98624412D01*
X263485000Y-97894841D01*
X263485000Y-97105159D01*
X263182801Y-96375588D01*
X262624412Y-95817199D01*
X261894841Y-95515000D01*
X261105159Y-95515000D01*
X260375588Y-95817199D01*
X259817199Y-96375588D01*
X259515000Y-97105159D01*
X257831231Y-97105159D01*
X258028839Y-96809418D01*
X258144092Y-96230000D01*
X258028839Y-95650582D01*
X257700625Y-95159375D01*
X257209418Y-94831161D01*
X256776256Y-94745000D01*
X256483744Y-94745000D01*
X256050582Y-94831161D01*
X255559375Y-95159375D01*
X255360000Y-95457761D01*
X255160625Y-95159375D01*
X254669418Y-94831161D01*
X254236256Y-94745000D01*
X253943744Y-94745000D01*
X253510582Y-94831161D01*
X253019375Y-95159375D01*
X252820000Y-95457761D01*
X252620625Y-95159375D01*
X252129418Y-94831161D01*
X251696256Y-94745000D01*
X251403744Y-94745000D01*
X250970582Y-94831161D01*
X250479375Y-95159375D01*
X250280000Y-95457761D01*
X250080625Y-95159375D01*
X249589418Y-94831161D01*
X249156256Y-94745000D01*
X248863744Y-94745000D01*
X248430582Y-94831161D01*
X247939375Y-95159375D01*
X247740000Y-95457761D01*
X247540625Y-95159375D01*
X247049418Y-94831161D01*
X246616256Y-94745000D01*
X246323744Y-94745000D01*
X245890582Y-94831161D01*
X245399375Y-95159375D01*
X245200000Y-95457761D01*
X245000625Y-95159375D01*
X244509418Y-94831161D01*
X244076256Y-94745000D01*
X243783744Y-94745000D01*
X243350582Y-94831161D01*
X242859375Y-95159375D01*
X242660000Y-95457761D01*
X242460625Y-95159375D01*
X241969418Y-94831161D01*
X241536256Y-94745000D01*
X241243744Y-94745000D01*
X240810582Y-94831161D01*
X240319375Y-95159375D01*
X240120000Y-95457761D01*
X239920625Y-95159375D01*
X239429418Y-94831161D01*
X238996256Y-94745000D01*
X238703744Y-94745000D01*
X238270582Y-94831161D01*
X237779375Y-95159375D01*
X237580000Y-95457761D01*
X237380625Y-95159375D01*
X236889418Y-94831161D01*
X236456256Y-94745000D01*
X236163744Y-94745000D01*
X235730582Y-94831161D01*
X235239375Y-95159375D01*
X235040000Y-95457761D01*
X234840625Y-95159375D01*
X234349418Y-94831161D01*
X233916256Y-94745000D01*
X233623744Y-94745000D01*
X233190582Y-94831161D01*
X232699375Y-95159375D01*
X232500000Y-95457761D01*
X232300625Y-95159375D01*
X231809418Y-94831161D01*
X231376256Y-94745000D01*
X231083744Y-94745000D01*
X230650582Y-94831161D01*
X230159375Y-95159375D01*
X229960000Y-95457761D01*
X229760625Y-95159375D01*
X229269418Y-94831161D01*
X228836256Y-94745000D01*
X228543744Y-94745000D01*
X228110582Y-94831161D01*
X227619375Y-95159375D01*
X227420000Y-95457761D01*
X227220625Y-95159375D01*
X226729418Y-94831161D01*
X226296256Y-94745000D01*
X226003744Y-94745000D01*
X225570582Y-94831161D01*
X225079375Y-95159375D01*
X224880000Y-95457761D01*
X224680625Y-95159375D01*
X224189418Y-94831161D01*
X223756256Y-94745000D01*
X223463744Y-94745000D01*
X223030582Y-94831161D01*
X222539375Y-95159375D01*
X222340000Y-95457761D01*
X222140625Y-95159375D01*
X221649418Y-94831161D01*
X221216256Y-94745000D01*
X220923744Y-94745000D01*
X220490582Y-94831161D01*
X219999375Y-95159375D01*
X219800000Y-95457761D01*
X219600625Y-95159375D01*
X219109418Y-94831161D01*
X218676256Y-94745000D01*
X218383744Y-94745000D01*
X217950582Y-94831161D01*
X217459375Y-95159375D01*
X217260000Y-95457761D01*
X217060625Y-95159375D01*
X216569418Y-94831161D01*
X216136256Y-94745000D01*
X215843744Y-94745000D01*
X215410582Y-94831161D01*
X214919375Y-95159375D01*
X214720000Y-95457761D01*
X214520625Y-95159375D01*
X214029418Y-94831161D01*
X213596256Y-94745000D01*
X213303744Y-94745000D01*
X212870582Y-94831161D01*
X212379375Y-95159375D01*
X212180000Y-95457761D01*
X211980625Y-95159375D01*
X211489418Y-94831161D01*
X211056256Y-94745000D01*
X210763744Y-94745000D01*
X210330582Y-94831161D01*
X209839375Y-95159375D01*
X209640000Y-95457761D01*
X209440625Y-95159375D01*
X208949418Y-94831161D01*
X208516256Y-94745000D01*
X208223744Y-94745000D01*
X207790582Y-94831161D01*
X207299375Y-95159375D01*
X206971161Y-95650582D01*
X206855908Y-96230000D01*
X206971161Y-96809418D01*
X207299375Y-97300625D01*
X207317619Y-97312816D01*
X207272235Y-97321843D01*
X207062191Y-97462191D01*
X206921843Y-97672235D01*
X206872560Y-97920000D01*
X206872560Y-99620000D01*
X206921843Y-99867765D01*
X207062191Y-100077809D01*
X207272235Y-100218157D01*
X207520000Y-100267440D01*
X207597585Y-100267440D01*
X207237142Y-100627883D01*
X207033900Y-101118552D01*
X207033900Y-101326100D01*
X206580216Y-101779784D01*
X206497976Y-101834735D01*
X206443025Y-101916975D01*
X206443022Y-101916978D01*
X206280271Y-102160553D01*
X206203824Y-102544880D01*
X206223121Y-102641893D01*
X206223120Y-105650712D01*
X206203824Y-105747720D01*
X206223120Y-105844728D01*
X206223120Y-105844731D01*
X206280271Y-106132047D01*
X206497975Y-106457865D01*
X206580218Y-106512818D01*
X207928360Y-107860961D01*
X207928360Y-107951060D01*
X207116576Y-107139276D01*
X207056041Y-107048679D01*
X206697146Y-106808873D01*
X206380661Y-106745920D01*
X206380657Y-106745920D01*
X206273800Y-106724665D01*
X206166943Y-106745920D01*
X205734836Y-106745920D01*
X205603302Y-106614386D01*
X205075879Y-106395920D01*
X204505001Y-106395920D01*
X203977578Y-106614386D01*
X203573906Y-107018058D01*
X203355440Y-107545481D01*
X203355440Y-108116359D01*
X203573906Y-108643782D01*
X203977578Y-109047454D01*
X204505001Y-109265920D01*
X205075879Y-109265920D01*
X205603302Y-109047454D01*
X205734836Y-108915920D01*
X205824380Y-108915920D01*
X207591380Y-110682920D01*
X205719596Y-110682920D01*
X205588062Y-110551386D01*
X205060639Y-110332920D01*
X204489761Y-110332920D01*
X203962338Y-110551386D01*
X203558666Y-110955058D01*
X203340200Y-111482481D01*
X203340200Y-112053359D01*
X203558666Y-112580782D01*
X203962338Y-112984454D01*
X204489761Y-113202920D01*
X205060639Y-113202920D01*
X205588062Y-112984454D01*
X205719596Y-112852920D01*
X207292500Y-112852920D01*
X209130620Y-114691040D01*
X205739916Y-114691040D01*
X205608382Y-114559506D01*
X205080959Y-114341040D01*
X204510081Y-114341040D01*
X203982658Y-114559506D01*
X203578986Y-114963178D01*
X203360520Y-115490601D01*
X203360520Y-116061479D01*
X203578986Y-116588902D01*
X203982658Y-116992574D01*
X204510081Y-117211040D01*
X205080959Y-117211040D01*
X205608382Y-116992574D01*
X205739916Y-116861040D01*
X209014620Y-116861040D01*
X209668739Y-117515160D01*
X209210796Y-117515160D01*
X208536356Y-117794522D01*
X208020162Y-118310716D01*
X207740800Y-118985156D01*
X207740800Y-119650740D01*
X206998200Y-120393340D01*
X205729756Y-120393340D01*
X205598222Y-120261806D01*
X205070799Y-120043340D01*
X204499921Y-120043340D01*
X203972498Y-120261806D01*
X203568826Y-120665478D01*
X203350360Y-121192901D01*
X203350360Y-121763779D01*
X203568826Y-122291202D01*
X203972498Y-122694874D01*
X204499921Y-122913340D01*
X205070799Y-122913340D01*
X205598222Y-122694874D01*
X205729756Y-122563340D01*
X207340763Y-122563340D01*
X207447620Y-122584595D01*
X207554477Y-122563340D01*
X207554481Y-122563340D01*
X207870966Y-122500387D01*
X208229861Y-122260581D01*
X208290396Y-122169984D01*
X209275220Y-121185160D01*
X209940804Y-121185160D01*
X210615244Y-120905798D01*
X210682821Y-120838221D01*
X210682820Y-122862098D01*
X210615244Y-122794522D01*
X209940804Y-122515160D01*
X209210796Y-122515160D01*
X208536356Y-122794522D01*
X208020162Y-123310716D01*
X207740800Y-123985156D01*
X207740800Y-124378600D01*
X205714516Y-124378600D01*
X205582982Y-124247066D01*
X205055559Y-124028600D01*
X204484681Y-124028600D01*
X203957258Y-124247066D01*
X203553586Y-124650738D01*
X203335120Y-125178161D01*
X190685000Y-125178161D01*
X190685000Y-97105159D01*
X201515000Y-97105159D01*
X201515000Y-97894841D01*
X201817199Y-98624412D01*
X202375588Y-99182801D01*
X203105159Y-99485000D01*
X203894841Y-99485000D01*
X204624412Y-99182801D01*
X205182801Y-98624412D01*
X205485000Y-97894841D01*
X205485000Y-97105159D01*
X205182801Y-96375588D01*
X204624412Y-95817199D01*
X203894841Y-95515000D01*
X203105159Y-95515000D01*
X202375588Y-95817199D01*
X201817199Y-96375588D01*
X201515000Y-97105159D01*
X190685000Y-97105159D01*
X190685000Y-97039793D01*
X190751605Y-96468506D01*
X190934182Y-95965515D01*
X191227572Y-95518021D01*
X191616039Y-95150023D01*
X192078745Y-94881262D01*
X192599847Y-94723435D01*
X193030505Y-94685000D01*
X261960207Y-94685000D01*
X262531494Y-94751605D01*
G04 #@! TD*
M02*
