M48
;DRILL file {KiCad (5.0.2)-1} date 07/06/2019 16:00:57
;FORMAT={-:-/ absolute / metric / decimal}
FMAT,2
METRIC,TZ
T1C0.800
T2C1.000
T3C1.300
%
G90
G05
T1
X208.369Y-101.384
X212.16Y-101.03
X214.26Y-102.18
X218.395Y-113.815
X218.46Y-103.3
X222.54Y-101.01
X222.926Y-128.521
X224.32Y-113.586
X226.05Y-101.74
X226.078Y-131.29
X227.28Y-102.91
X228.72Y-101.62
X229.679Y-116.738
X230.55Y-101.59
X231.394Y-127.419
X231.526Y-131.559
X232.18Y-100.96
X232.34Y-103.64
X233.548Y-129.217
X233.586Y-112.004
X234.66Y-100.979
X236.281Y-129.245
X239.146Y-132.466
X241.656Y-102.146
X242.738Y-133.723
X255.35Y-102.53
X231.001Y-135.332
X231.001Y-142.951
X233.541Y-135.332
X233.541Y-142.951
X236.081Y-135.332
X236.081Y-142.951
X241.491Y-135.446
X241.491Y-143.066
X244.031Y-135.446
X244.031Y-143.066
X246.571Y-135.446
X246.571Y-143.066
X220.307Y-135.268
X220.307Y-142.888
X222.847Y-135.268
X222.847Y-142.888
X225.387Y-135.268
X225.387Y-142.888
X209.969Y-135.23
X209.969Y-142.85
X212.51Y-135.23
X212.51Y-142.85
X215.049Y-135.23
X215.049Y-142.85
T2
X204.757Y-129.403
X204.77Y-125.464
X204.775Y-111.768
X204.785Y-121.478
X204.79Y-107.831
X204.796Y-115.776
X249.959Y-107.945
X249.967Y-115.959
X249.974Y-121.455
X249.977Y-125.456
X249.982Y-129.456
X249.992Y-111.946
X252.022Y-145.194
X208.37Y-96.23
X208.37Y-98.77
X210.91Y-96.23
X210.91Y-98.77
X213.45Y-96.23
X213.45Y-98.77
X215.99Y-96.23
X215.99Y-98.77
X218.53Y-96.23
X218.53Y-98.77
X221.07Y-96.23
X221.07Y-98.77
X223.61Y-96.23
X223.61Y-98.77
X226.15Y-96.23
X226.15Y-98.77
X228.69Y-96.23
X228.69Y-98.77
X231.23Y-96.23
X231.23Y-98.77
X233.77Y-96.23
X233.77Y-98.77
X236.31Y-96.23
X236.31Y-98.77
X238.85Y-96.23
X238.85Y-98.77
X241.39Y-96.23
X241.39Y-98.77
X243.93Y-96.23
X243.93Y-98.77
X246.47Y-96.23
X246.47Y-98.77
X249.01Y-96.23
X249.01Y-98.77
X251.55Y-96.23
X251.55Y-98.77
X254.09Y-96.23
X254.09Y-98.77
X256.63Y-96.23
X256.63Y-98.77
X247.483Y-104.365
X247.483Y-108.115
X209.576Y-104.35
X209.576Y-108.1
X241.656Y-104.365
X241.656Y-108.115
X215.179Y-104.365
X215.179Y-108.115
T3
X247.483Y-119.365
X247.483Y-124.365
X247.483Y-129.365
X209.576Y-119.35
X209.576Y-124.35
X209.576Y-129.35
X241.656Y-119.365
X241.656Y-124.365
X241.656Y-129.365
X215.179Y-119.365
X215.179Y-124.365
X215.179Y-129.365
T0
M30
